# xmcd
#
# Track frame offsets: 
#        150
#        18291
#        34629
#        51772
#        63212
#        85335
#        105184
#        122804
#        138149
#        148559
#        159519
#        183917
#        212055
#
# Disc length: 3028 seconds
#
# Revision: 0
# Processed by: cddbd v1.5.2PL0 Copyright (c) Steve Scherf et al.
# Submitted via: ExactAudioCopy v0.99pb5
#
DISCID=a20bd20d
DTITLE=Евгений Гурин and Корсар - Корабли
DYEAR=2003
DGENRE=Blues
TTITLE0=Куба
TTITLE1=Аромат цветов
TTITLE2=Катерина
TTITLE3=Босиком по лужам
TTITLE4=Третий лишний
TTITLE5=Понедельник
TTITLE6=Гитара и цветы
TTITLE7=Корабли
TTITLE8=Белый вальс
TTITLE9=Муза
TTITLE10=Счастливый билет
TTITLE11=Честно
TTITLE12=Небо в алмазах (менты)
EXTD=
EXTT0=
EXTT1=
EXTT2=
EXTT3=
EXTT4=
EXTT5=
EXTT6=
EXTT7=
EXTT8=
EXTT9=
EXTT10=
EXTT11=
EXTT12=
PLAYORDER=
